<svg viewBox="0 0 354 132" fill="none" xmlns="http://www.w3.org/2000/svg">
  <rect width="132" height="132" rx="14" fill="#41DFAB" />
  <path
    d="M106 35L86.46 90H73.74L65.7 73L55.92 97.5H43.2L30.96 63.5H43.2L50.28 82.32L60.54 56.56H71.46L79.92 75.06L94.66 35H106Z"
    fill="#282524" />
  <path
    d="M233.048 50.976L219.152 90H205.904L198.56 68.76L190.928 90H177.68L163.784 50.976H176.744L184.736 74.592L193.016 50.976H204.68L212.744 74.808L221.024 50.976H233.048ZM237.228 50.976H250.908V90H237.228V50.976ZM244.068 46.656C241.572 46.656 239.556 45.96 238.02 44.568C236.484 43.176 235.716 41.448 235.716 39.384C235.716 37.32 236.484 35.592 238.02 34.2C239.556 32.808 241.572 32.112 244.068 32.112C246.564 32.112 248.58 32.784 250.116 34.128C251.652 35.424 252.42 37.104 252.42 39.168C252.42 41.328 251.652 43.128 250.116 44.568C248.58 45.96 246.564 46.656 244.068 46.656ZM301.27 36.576V90H288.238V86.112C285.694 89.136 281.878 90.648 276.79 90.648C273.238 90.648 269.998 89.832 267.07 88.2C264.142 86.52 261.814 84.144 260.086 81.072C258.406 78 257.566 74.448 257.566 70.416C257.566 66.384 258.406 62.856 260.086 59.832C261.814 56.76 264.142 54.408 267.07 52.776C269.998 51.144 273.238 50.328 276.79 50.328C281.446 50.328 285.046 51.672 287.59 54.36V36.576H301.27ZM279.67 79.776C282.022 79.776 283.966 78.96 285.502 77.328C287.038 75.648 287.806 73.344 287.806 70.416C287.806 67.536 287.038 65.28 285.502 63.648C284.014 62.016 282.07 61.2 279.67 61.2C277.27 61.2 275.302 62.016 273.766 63.648C272.23 65.28 271.462 67.536 271.462 70.416C271.462 73.344 272.23 75.648 273.766 77.328C275.302 78.96 277.27 79.776 279.67 79.776ZM329.656 90.648C325.48 90.648 321.712 89.784 318.352 88.056C314.992 86.328 312.352 83.928 310.432 80.856C308.56 77.784 307.624 74.304 307.624 70.416C307.624 66.576 308.56 63.12 310.432 60.048C312.352 56.976 314.968 54.6 318.28 52.92C321.64 51.192 325.432 50.328 329.656 50.328C333.88 50.328 337.672 51.192 341.032 52.92C344.392 54.6 347.008 56.976 348.88 60.048C350.752 63.072 351.688 66.528 351.688 70.416C351.688 74.304 350.752 77.784 348.88 80.856C347.008 83.928 344.392 86.328 341.032 88.056C337.672 89.784 333.88 90.648 329.656 90.648ZM329.656 79.776C332.056 79.776 334.024 78.96 335.56 77.328C337.096 75.648 337.864 73.344 337.864 70.416C337.864 67.536 337.096 65.28 335.56 63.648C334.024 62.016 332.056 61.2 329.656 61.2C327.256 61.2 325.288 62.016 323.752 63.648C322.216 65.28 321.448 67.536 321.448 70.416C321.448 73.344 322.216 75.648 323.752 77.328C325.288 78.96 327.256 79.776 329.656 79.776Z"
    fill="#282524" />
</svg>
