<svg viewBox="0 0 189 59" fill="none" xmlns="http://www.w3.org/2000/svg">
  <path
    d="M70.048 18.976L56.152 58H42.904L35.56 36.76L27.928 58H14.68L0.784 18.976H13.744L21.736 42.592L30.016 18.976H41.68L49.744 42.808L58.024 18.976H70.048ZM74.2279 18.976H87.9079V58H74.2279V18.976ZM81.0679 14.656C78.5719 14.656 76.5559 13.96 75.0199 12.568C73.4839 11.176 72.7159 9.448 72.7159 7.384C72.7159 5.32 73.4839 3.592 75.0199 2.2C76.5559 0.807998 78.5719 0.111999 81.0679 0.111999C83.5639 0.111999 85.5799 0.783998 87.1159 2.128C88.6519 3.424 89.4199 5.104 89.4199 7.168C89.4199 9.328 88.6519 11.128 87.1159 12.568C85.5799 13.96 83.5639 14.656 81.0679 14.656ZM138.27 4.576V58H125.238V54.112C122.694 57.136 118.878 58.648 113.79 58.648C110.238 58.648 106.998 57.832 104.07 56.2C101.142 54.52 98.8143 52.144 97.0863 49.072C95.4063 46 94.5663 42.448 94.5663 38.416C94.5663 34.384 95.4063 30.856 97.0863 27.832C98.8143 24.76 101.142 22.408 104.07 20.776C106.998 19.144 110.238 18.328 113.79 18.328C118.446 18.328 122.046 19.672 124.59 22.36V4.576H138.27ZM116.67 47.776C119.022 47.776 120.966 46.96 122.502 45.328C124.038 43.648 124.806 41.344 124.806 38.416C124.806 35.536 124.038 33.28 122.502 31.648C121.014 30.016 119.07 29.2 116.67 29.2C114.27 29.2 112.302 30.016 110.766 31.648C109.23 33.28 108.462 35.536 108.462 38.416C108.462 41.344 109.23 43.648 110.766 45.328C112.302 46.96 114.27 47.776 116.67 47.776ZM166.656 58.648C162.48 58.648 158.712 57.784 155.352 56.056C151.992 54.328 149.352 51.928 147.432 48.856C145.56 45.784 144.624 42.304 144.624 38.416C144.624 34.576 145.56 31.12 147.432 28.048C149.352 24.976 151.968 22.6 155.28 20.92C158.64 19.192 162.432 18.328 166.656 18.328C170.88 18.328 174.672 19.192 178.032 20.92C181.392 22.6 184.008 24.976 185.88 28.048C187.752 31.072 188.688 34.528 188.688 38.416C188.688 42.304 187.752 45.784 185.88 48.856C184.008 51.928 181.392 54.328 178.032 56.056C174.672 57.784 170.88 58.648 166.656 58.648ZM166.656 47.776C169.056 47.776 171.024 46.96 172.56 45.328C174.096 43.648 174.864 41.344 174.864 38.416C174.864 35.536 174.096 33.28 172.56 31.648C171.024 30.016 169.056 29.2 166.656 29.2C164.256 29.2 162.288 30.016 160.752 31.648C159.216 33.28 158.448 35.536 158.448 38.416C158.448 41.344 159.216 43.648 160.752 45.328C162.288 46.96 164.256 47.776 166.656 47.776Z"
    fill="#282524" />
</svg>
