<svg width="41" height="41" viewBox="0 0 41 41" fill="none" xmlns="http://www.w3.org/2000/svg">
  <path
    d="M23.5 27.7333C29.7777 27.7333 34.8667 22.4802 34.8667 16C34.8667 9.51979 29.7777 4.26667 23.5 4.26667C17.2223 4.26667 12.1333 9.51979 12.1333 16C12.1333 22.4802 17.2223 27.7333 23.5 27.7333ZM23.5 32C14.9399 32 8 24.8363 8 16C8 7.16373 14.9399 0 23.5 0C32.0601 0 39 7.16373 39 16C39 24.8363 32.0601 32 23.5 32Z"
    fill="#35D07F" />
  <path
    d="M15 36.7333C21.0752 36.7333 26 31.4802 26 25C26 18.5198 21.0752 13.2667 15 13.2667C8.9248 13.2667 4 18.5198 4 25C4 31.4802 8.9248 36.7333 15 36.7333ZM15 41C6.716 41 0 33.8363 0 25C0 16.1637 6.716 9 15 9C23.284 9 30 16.1637 30 25C30 33.8363 23.284 41 15 41Z"
    fill="#FBCC5C" />
  <path
    d="M23.4948 32C24.5351 30.6822 25.2807 29.138 25.6771 27.4803C27.2625 27.066 28.7395 26.2866 30 25.1992C29.9425 27.1185 29.5471 29.0103 28.8336 30.7797C27.141 31.5261 25.3313 31.9397 23.4952 32H23.4948ZM12.3229 13.5188C10.7375 13.9332 9.26054 14.7126 8 15.8C8.05747 13.8807 8.45288 11.9889 9.16639 10.2195C10.859 9.47339 12.6687 9.05999 14.5048 9C13.4648 10.3177 12.7194 11.8615 12.3229 13.5188V13.5188Z"
    fill="#ECFF8F" />
</svg>